<svg width="526" height="526" viewBox="0 0 526 526" fill="none" xmlns="http://www.w3.org/2000/svg">
<g filter="url(#filter0_d)">
<path d="M197.891 65.0112L271.95 128.335L354.034 75.8308L361.625 172.975L456.794 193.891L393.469 267.95L445.974 350.034L348.83 357.625L327.914 452.794L253.855 389.469L171.77 441.974L164.18 344.83L69.0112 323.914L132.335 249.855L79.8308 167.77L176.975 160.18L197.891 65.0112Z" fill="#FF8761"/>
<mask id="mask0" mask-type="alpha" maskUnits="userSpaceOnUse" x="4" y="0" width="518" height="518">
<path d="M202.221 77.923L267.401 133.656L271.347 137.03L275.722 134.232L347.966 88.0221L354.646 173.52L355.05 178.697L360.122 179.812L443.882 198.221L388.149 263.401L384.774 267.347L387.572 271.722L433.783 343.966L348.284 350.646L343.107 351.05L341.993 356.122L323.584 439.882L258.404 384.149L254.458 380.774L250.083 383.572L177.839 429.783L171.159 344.284L170.754 339.107L165.683 337.993L81.923 319.584L137.656 254.404L141.03 250.458L138.232 246.083L92.0221 173.839L177.52 167.159L182.697 166.754L183.812 161.683L202.221 77.923Z" fill="#FF8761" stroke="white" stroke-width="14"/>
</mask>
<g mask="url(#mask0)">
<rect x="-40.641" y="293.961" width="432" height="138.844" transform="rotate(-47.4219 -40.641 293.961)" fill="#B55F44"/>
<rect x="174.121" y="497.232" width="432" height="138.844" transform="rotate(-47.4219 174.121 497.232)" fill="#B55F44"/>
</g>
<path d="M202.53 78.8453L267.076 134.036L271.304 137.651L275.991 134.654L347.532 88.8929L354.147 173.559L354.581 179.106L360.015 180.3L442.959 198.53L387.769 263.076L384.153 267.304L387.151 271.991L432.912 343.532L348.245 350.147L342.699 350.581L341.505 356.015L323.275 438.959L258.729 383.769L254.501 380.153L249.814 383.151L178.273 428.912L171.657 344.245L171.224 338.699L165.79 337.505L82.8453 319.275L138.036 254.729L141.651 250.501L138.654 245.814L92.8929 174.273L177.559 167.657L183.106 167.224L184.3 161.79L202.53 78.8453Z" stroke="white" stroke-width="15"/>
<path d="M182.457 270.96L165.117 276.774L173.129 300.667L190.468 294.853C196.646 292.781 200.791 287.139 198.067 279.015C195.344 270.892 188.635 268.889 182.457 270.96ZM186.419 290.477L177.544 293.453L172.989 279.868L181.864 276.892C186.506 275.336 189.978 275.273 191.923 281.075C193.869 286.878 191.061 288.921 186.419 290.477ZM216.228 281.317C212.337 282.622 208.91 282.594 207.186 279.603L228.894 272.324C225.827 263.177 218.836 262.597 211.191 265.161C203.033 267.896 198.272 272.834 200.755 280.24C203.227 287.613 210.173 288.625 217.819 286.062C225.26 283.567 229.431 279.473 229.045 273.906L223.243 275.852C222.462 278.392 220.256 279.967 216.228 281.317ZM212.644 269.609C216.33 268.373 219.461 268.197 221.401 270.698L206.143 275.814C206.115 272.672 208.651 270.948 212.644 269.609ZM230.75 273.487C232.902 279.904 240.401 278.49 248.149 275.892C255.897 273.294 260.685 270.588 258.786 264.922C256.989 259.563 251.561 261.155 243.516 263.207C236.416 265.018 235.289 265.168 234.866 263.905C234.476 262.745 235.909 261.809 241.439 259.955C246.866 258.135 249.119 257.835 249.68 259.508L255.551 257.539C253.697 252.01 247.87 252.862 240.292 255.403C233.124 257.806 227.312 260.856 229.075 266.113C230.7 270.959 235.264 270.189 244.276 267.736C251.49 265.811 252.48 265.593 252.995 267.129C253.521 268.699 252.635 269.452 246.32 271.569C239.801 273.755 237.308 273.68 236.587 271.53L230.75 273.487ZM253.971 243.185L255.676 248.271L261.512 246.313L259.807 241.228L253.971 243.185ZM256.385 250.387L263.126 270.491L268.963 268.534L262.222 248.43L256.385 250.387ZM286.425 240.314L287.512 243.557C284.743 241.98 280.918 241.781 276.139 243.384C269.244 245.695 265.337 250.347 267.717 257.447C270.097 264.546 276.02 265.902 282.914 263.59C287.659 261.999 290.592 259.535 291.884 256.596C293.373 261.83 291.899 264.906 285.857 266.932C281.42 268.42 276.583 268.94 274.079 269.286L275.658 273.997C277.775 273.856 282.954 273.335 288.791 271.378C296.403 268.826 300.708 263.433 297.961 255.242L292.296 238.346L286.425 240.314ZM283.394 258C277.899 259.842 274.79 259.176 273.554 255.49C272.318 251.803 274.397 249.398 279.892 247.555C285.387 245.712 288.462 246.39 289.698 250.076C290.934 253.763 288.889 256.157 283.394 258ZM312.647 231.143C307.766 232.779 304.345 235.711 302.233 238.925L301.054 235.409L295.218 237.366L301.959 257.47L307.795 255.513L304.018 244.25C305.118 241.527 308.675 238.094 312.6 236.778C317.413 235.164 319.59 236.902 321.021 241.169L324.008 250.077L329.879 248.109L326.216 236.959C323.664 229.575 318.006 229.346 312.647 231.143ZM329.581 240.349C331.732 246.766 339.232 245.352 346.98 242.754C354.728 240.157 359.516 237.45 357.616 231.784C355.82 226.425 350.392 228.017 342.347 230.069C335.246 231.88 334.12 232.03 333.696 230.768C333.307 229.607 334.74 228.671 340.269 226.817C345.696 224.997 347.95 224.697 348.511 226.37L354.382 224.401C352.528 218.872 346.7 219.725 339.123 222.265C331.955 224.669 326.143 227.719 327.906 232.975C329.531 237.822 334.094 237.051 343.106 234.599C350.321 232.674 351.311 232.455 351.826 233.991C352.352 235.562 351.465 236.314 345.151 238.432C338.632 240.618 336.138 240.542 335.417 238.392L329.581 240.349Z" fill="#623426"/>
</g>
<defs>
<filter id="filter0_d" x="0" y="0" width="525.805" height="525.805" filterUnits="userSpaceOnUse" color-interpolation-filters="sRGB">
<feFlood flood-opacity="0" result="BackgroundImageFix"/>
<feColorMatrix in="SourceAlpha" type="matrix" values="0 0 0 0 0 0 0 0 0 0 0 0 0 0 0 0 0 0 127 0"/>
<feOffset dy="4"/>
<feGaussianBlur stdDeviation="2"/>
<feColorMatrix type="matrix" values="0 0 0 0 0 0 0 0 0 0 0 0 0 0 0 0 0 0 0.05 0"/>
<feBlend mode="normal" in2="BackgroundImageFix" result="effect1_dropShadow"/>
<feBlend mode="normal" in="SourceGraphic" in2="effect1_dropShadow" result="shape"/>
</filter>
</defs>
</svg>
