<svg width="253" height="66" viewBox="0 0 253 66" fill="none" xmlns="http://www.w3.org/2000/svg">
<path d="M37.34 7.436C32.084 7.436 28.304 9.272 25.568 11.324C23.948 8.372 20.924 7.436 17.72 7.436C12.464 7.436 9.008 9.416 6.704 11.252V7.796H0.548V29H6.704V16.508C8.468 14.6 11.924 12.764 15.488 12.764C19.88 12.764 20.636 15.104 20.636 19.604V29H26.792L26.864 17.12C26.864 16.724 26.864 16.364 26.828 16.004C28.7 14.312 31.868 12.764 35.108 12.764C39.5 12.764 40.256 15.104 40.256 19.604V29H46.412L46.484 17.12C46.412 9.452 42.092 7.436 37.34 7.436ZM63.3565 29.36C72.1045 29.36 78.0445 26.192 78.0445 18.416C78.0445 10.604 72.1045 7.436 63.3565 7.436C54.5725 7.436 48.6685 10.604 48.6685 18.416C48.6685 26.192 54.5725 29.36 63.3565 29.36ZM63.3565 24.212C57.6325 24.212 54.8245 22.808 54.8245 18.416C54.8245 13.988 57.6325 12.584 63.3565 12.584C69.0445 12.584 71.8525 13.988 71.8525 18.416C71.8525 22.808 69.0445 24.212 63.3565 24.212ZM98.8918 7.436C93.7438 7.436 89.5678 9.128 86.5438 11.504V7.796H80.3878V29H86.5438V17.12C88.4518 14.888 92.9158 12.764 97.0558 12.764C102.132 12.764 103.644 15.104 103.644 19.604V29H109.836L109.908 17.264C109.836 9.452 104.544 7.436 98.8918 7.436ZM135.275 0.2V11.108C132.971 8.696 129.263 7.436 124.691 7.436C117.887 7.436 112.055 10.316 112.055 18.416C112.055 26.516 117.887 29.36 124.691 29.36C129.263 29.36 132.971 28.1 135.275 25.688V29H141.431V0.2H135.275ZM126.743 24.212C121.235 24.212 118.247 22.592 118.247 18.416C118.247 14.204 121.235 12.584 126.743 12.584C132.251 12.584 135.275 14.204 135.275 18.416C135.275 22.592 132.251 24.212 126.743 24.212ZM158.454 29.36C167.202 29.36 173.142 26.192 173.142 18.416C173.142 10.604 167.202 7.436 158.454 7.436C149.67 7.436 143.766 10.604 143.766 18.416C143.766 26.192 149.67 29.36 158.454 29.36ZM158.454 24.212C152.73 24.212 149.922 22.808 149.922 18.416C149.922 13.988 152.73 12.584 158.454 12.584C164.142 12.584 166.95 13.988 166.95 18.416C166.95 22.808 164.142 24.212 158.454 24.212ZM0.188 57.548C0.188 64.316 7.748 65.36 15.92 65.36C24.092 65.36 29.492 64.316 29.492 58.34C29.492 52.688 23.84 52.472 15.56 51.86C8.252 51.32 7.136 51.104 7.136 49.772C7.136 48.548 8.792 48.116 14.624 48.116C20.348 48.116 22.58 48.548 22.58 50.312H28.772C28.772 44.48 22.976 43.436 14.984 43.436C7.424 43.436 0.944 44.48 0.944 50.024C0.944 55.136 5.516 55.856 14.84 56.396C22.292 56.864 23.3 56.972 23.3 58.592C23.3 60.248 22.22 60.68 15.56 60.68C8.684 60.68 6.344 59.816 6.344 57.548H0.188ZM31.2661 54.416C31.2661 62.192 37.1701 65.36 45.9541 65.36C53.8741 65.36 59.4541 62.768 60.4621 56.54H54.1621C53.3341 59.276 50.4181 60.212 45.9541 60.212C40.6621 60.212 37.4221 58.808 37.4221 54.416C37.4221 49.988 40.6621 48.584 45.9541 48.584C50.4181 48.584 53.3341 49.52 54.1621 52.256H60.4621C59.4541 46.028 53.8741 43.436 45.9541 43.436C37.1701 43.436 31.2661 46.604 31.2661 54.416ZM81.3137 43.436C76.1657 43.436 71.9897 45.128 68.9657 47.504V36.2H62.8097V65H68.9657V53.12C70.8737 50.888 75.3377 48.764 79.4777 48.764C84.5537 48.764 86.0657 51.104 86.0657 55.604V65H92.2577L92.3297 53.264C92.2577 45.452 86.9657 43.436 81.3137 43.436ZM113.693 43.436C108.545 43.436 104.369 45.128 101.345 47.504V43.796H95.1886V65H101.345V53.12C103.253 50.888 107.717 48.764 111.857 48.764C116.933 48.764 118.445 51.104 118.445 55.604V65H124.637L124.709 53.264C124.637 45.452 119.345 43.436 113.693 43.436ZM141.184 60.356C137.08 60.356 133.84 59.24 133.156 55.856H156.052C156.052 46.208 149.608 43.436 141.544 43.436C132.94 43.436 126.856 46.604 126.856 54.416C126.856 62.192 133.12 65.36 141.184 65.36C149.032 65.36 154.288 62.804 155.692 57.404H149.572C148.024 59.564 145.432 60.356 141.184 60.356ZM141.508 48.116C145.396 48.116 148.42 48.944 149.464 51.932H133.372C134.344 48.944 137.296 48.116 141.508 48.116ZM158.4 36.2V41.564H164.556V36.2H158.4ZM158.4 43.796V65H164.556V43.796H158.4ZM190.119 36.2V47.108C187.815 44.696 184.107 43.436 179.535 43.436C172.731 43.436 166.899 46.316 166.899 54.416C166.899 62.516 172.731 65.36 179.535 65.36C184.107 65.36 187.815 64.1 190.119 61.688V65H196.275V36.2H190.119ZM181.587 60.212C176.079 60.212 173.091 58.592 173.091 54.416C173.091 50.204 176.079 48.584 181.587 48.584C187.095 48.584 190.119 50.204 190.119 54.416C190.119 58.592 187.095 60.212 181.587 60.212ZM212.938 60.356C208.834 60.356 205.594 59.24 204.91 55.856H227.806C227.806 46.208 221.362 43.436 213.298 43.436C204.694 43.436 198.61 46.604 198.61 54.416C198.61 62.192 204.874 65.36 212.938 65.36C220.786 65.36 226.042 62.804 227.446 57.404H221.326C219.778 59.564 217.186 60.356 212.938 60.356ZM213.262 48.116C217.15 48.116 220.174 48.944 221.218 51.932H205.126C206.098 48.944 209.05 48.116 213.262 48.116ZM247.181 43.436C243.221 43.436 239.477 44.552 236.309 47.396V43.796H230.153V65H236.309V52.292C240.053 49.376 244.013 48.584 247.469 48.584C249.269 48.584 250.889 48.8 252.905 49.304V44.156C251.465 43.796 249.701 43.436 247.181 43.436Z" fill="black"/>
</svg>
