<svg width="358" height="503" viewBox="0 0 358 503" fill="none" xmlns="http://www.w3.org/2000/svg">
<path fill-rule="evenodd" clip-rule="evenodd" d="M127 1.84225L126.572 1.41427L1.41421 126.572L73.5391 198.697L127.236 145H128.65L74.2462 199.404L73.5391 200.111L72.832 199.404L0.707107 127.279L0 126.572L0.707107 125.865L125.865 0.707168L126.572 6.10352e-05L127 0.428039V1.84225Z" fill="black"/>
<path fill-rule="evenodd" clip-rule="evenodd" d="M128 145V502H230V145H231V502V503H230H128H127V502V145H128Z" fill="black"/>
<path fill-rule="evenodd" clip-rule="evenodd" d="M229.875 145L283.572 198.697L355.697 126.572L231 1.87511V0.460896L231.246 0.707107L356.404 125.865L357.111 126.572L356.404 127.279L284.279 199.404L283.572 200.111L282.865 199.404L228.461 145H229.875ZM230.539 4.48227e-05L230.539 0L230.539 4.48227e-05H230.539Z" fill="black"/>
<path d="M127 1H231" stroke="black"/>
</svg>
