<svg width="249" height="249" viewBox="0 0 249 249" fill="none" xmlns="http://www.w3.org/2000/svg">
<g filter="url(#filter0_d)">
<circle cx="124.417" cy="120.417" r="97" transform="rotate(-16.3791 124.417 120.417)" fill="white"/>
<circle cx="124.078" cy="121.037" r="86.5" transform="rotate(-16.3791 124.078 121.037)" fill="#FF6F6F"/>
<mask id="path-3-inside-1" fill="white">
<path d="M187.072 112.853C189.074 127.755 185.693 142.883 177.537 155.514C169.381 168.146 156.985 177.452 142.58 181.761C128.175 186.069 112.705 185.096 98.9529 179.016C85.201 172.937 74.0697 162.15 67.561 148.596L74.0537 145.478C79.82 157.486 89.6817 167.043 101.865 172.429C114.049 177.815 127.754 178.677 140.516 174.86C153.279 171.043 164.26 162.798 171.486 151.607C178.712 140.416 181.707 127.015 179.934 113.812L187.072 112.853Z"/>
</mask>
<path d="M187.072 112.853C189.074 127.755 185.693 142.883 177.537 155.514C169.381 168.146 156.985 177.452 142.58 181.761C128.175 186.069 112.705 185.096 98.9529 179.016C85.201 172.937 74.0697 162.15 67.561 148.596L74.0537 145.478C79.82 157.486 89.6817 167.043 101.865 172.429C114.049 177.815 127.754 178.677 140.516 174.86C153.279 171.043 164.26 162.798 171.486 151.607C178.712 140.416 181.707 127.015 179.934 113.812L187.072 112.853Z" stroke="#BC5151" stroke-width="36" mask="url(#path-3-inside-1)"/>
<circle cx="88.7395" cy="113.941" r="18.4183" transform="rotate(-16.3791 88.7395 113.941)" fill="#BC5151"/>
<circle cx="150.587" cy="95.7623" r="18.4183" transform="rotate(-16.3791 150.587 95.7623)" fill="#BC5151"/>
</g>
<defs>
<filter id="filter0_d" x="0" y="0" width="248.833" height="248.833" filterUnits="userSpaceOnUse" color-interpolation-filters="sRGB">
<feFlood flood-opacity="0" result="BackgroundImageFix"/>
<feColorMatrix in="SourceAlpha" type="matrix" values="0 0 0 0 0 0 0 0 0 0 0 0 0 0 0 0 0 0 127 0"/>
<feOffset dy="4"/>
<feGaussianBlur stdDeviation="2"/>
<feColorMatrix type="matrix" values="0 0 0 0 0 0 0 0 0 0 0 0 0 0 0 0 0 0 0.05 0"/>
<feBlend mode="normal" in2="BackgroundImageFix" result="effect1_dropShadow"/>
<feBlend mode="normal" in="SourceGraphic" in2="effect1_dropShadow" result="shape"/>
</filter>
</defs>
</svg>
